<mxfile host="app.diagrams.net" agent="Mozilla/5.0 (X11; Linux x86_64) AppleWebKit/537.36 (KHTML, like Gecko) Chrome/125.0.0.0 Safari/537.36" version="26.0.4">
  <diagram name="第 1 页" id="Oi6bGWKlkqbDatUB8jzQ">
    <mxGraphModel dx="957" dy="479" grid="1" gridSize="10" guides="1" tooltips="1" connect="1" arrows="1" fold="1" page="1" pageScale="1" pageWidth="827" pageHeight="1169" math="0" shadow="0">
      <root>
        <mxCell id="0" />
        <mxCell id="1" parent="0" />
        <mxCell id="WLD2-9vDDByNQEJ-Vk1g-15" style="edgeStyle=orthogonalEdgeStyle;rounded=0;orthogonalLoop=1;jettySize=auto;html=1;exitX=0.5;exitY=0;exitDx=0;exitDy=0;entryX=0;entryY=0.5;entryDx=0;entryDy=0;" edge="1" parent="1" source="WLD2-9vDDByNQEJ-Vk1g-1" target="WLD2-9vDDByNQEJ-Vk1g-4">
          <mxGeometry relative="1" as="geometry" />
        </mxCell>
        <mxCell id="WLD2-9vDDByNQEJ-Vk1g-1" value="FP8" style="rounded=0;whiteSpace=wrap;html=1;fillColor=#d5e8d4;strokeColor=#82b366;" vertex="1" parent="1">
          <mxGeometry x="40" y="320" width="60" height="20" as="geometry" />
        </mxCell>
        <mxCell id="WLD2-9vDDByNQEJ-Vk1g-2" value="" style="rounded=0;whiteSpace=wrap;html=1;fillColor=#d5e8d4;strokeColor=#82b366;" vertex="1" parent="1">
          <mxGeometry x="110" y="320" width="60" height="20" as="geometry" />
        </mxCell>
        <mxCell id="WLD2-9vDDByNQEJ-Vk1g-21" style="edgeStyle=orthogonalEdgeStyle;rounded=0;orthogonalLoop=1;jettySize=auto;html=1;exitX=0.5;exitY=1;exitDx=0;exitDy=0;entryX=0;entryY=0.5;entryDx=0;entryDy=0;" edge="1" parent="1" source="WLD2-9vDDByNQEJ-Vk1g-3" target="WLD2-9vDDByNQEJ-Vk1g-8">
          <mxGeometry relative="1" as="geometry" />
        </mxCell>
        <mxCell id="WLD2-9vDDByNQEJ-Vk1g-3" value="" style="rounded=0;whiteSpace=wrap;html=1;fillColor=#d5e8d4;strokeColor=#82b366;" vertex="1" parent="1">
          <mxGeometry x="240" y="320" width="60" height="20" as="geometry" />
        </mxCell>
        <mxCell id="WLD2-9vDDByNQEJ-Vk1g-4" value="FP8" style="rounded=0;whiteSpace=wrap;html=1;fillColor=#fff2cc;strokeColor=#d6b656;" vertex="1" parent="1">
          <mxGeometry x="390" y="190" width="70" height="60" as="geometry" />
        </mxCell>
        <mxCell id="WLD2-9vDDByNQEJ-Vk1g-6" value="" style="endArrow=none;dashed=1;html=1;dashPattern=1 3;strokeWidth=2;rounded=0;" edge="1" parent="1">
          <mxGeometry width="50" height="50" relative="1" as="geometry">
            <mxPoint x="190" y="329.77" as="sourcePoint" />
            <mxPoint x="220" y="329.77" as="targetPoint" />
          </mxGeometry>
        </mxCell>
        <mxCell id="WLD2-9vDDByNQEJ-Vk1g-7" value="" style="rounded=0;whiteSpace=wrap;html=1;fillColor=#fff2cc;strokeColor=#d6b656;" vertex="1" parent="1">
          <mxGeometry x="390" y="260" width="70" height="60" as="geometry" />
        </mxCell>
        <mxCell id="WLD2-9vDDByNQEJ-Vk1g-8" value="" style="rounded=0;whiteSpace=wrap;html=1;fillColor=#fff2cc;strokeColor=#d6b656;" vertex="1" parent="1">
          <mxGeometry x="390" y="370" width="70" height="60" as="geometry" />
        </mxCell>
        <mxCell id="WLD2-9vDDByNQEJ-Vk1g-9" value="" style="endArrow=none;dashed=1;html=1;dashPattern=1 3;strokeWidth=2;rounded=0;" edge="1" parent="1">
          <mxGeometry width="50" height="50" relative="1" as="geometry">
            <mxPoint x="424.77" y="330" as="sourcePoint" />
            <mxPoint x="424.77" y="360" as="targetPoint" />
          </mxGeometry>
        </mxCell>
        <mxCell id="WLD2-9vDDByNQEJ-Vk1g-10" value="&lt;b&gt;Input&lt;/b&gt;" style="text;html=1;align=center;verticalAlign=middle;whiteSpace=wrap;rounded=0;" vertex="1" parent="1">
          <mxGeometry x="130" y="385" width="60" height="30" as="geometry" />
        </mxCell>
        <mxCell id="WLD2-9vDDByNQEJ-Vk1g-11" value="&lt;b&gt;Weight&lt;/b&gt;" style="text;html=1;align=center;verticalAlign=middle;whiteSpace=wrap;rounded=0;" vertex="1" parent="1">
          <mxGeometry x="395" y="130" width="60" height="30" as="geometry" />
        </mxCell>
        <mxCell id="WLD2-9vDDByNQEJ-Vk1g-12" value="" style="shape=crossbar;whiteSpace=wrap;html=1;rounded=1;" vertex="1" parent="1">
          <mxGeometry x="40" y="350" width="60" height="10" as="geometry" />
        </mxCell>
        <mxCell id="WLD2-9vDDByNQEJ-Vk1g-14" value="&lt;b&gt;&lt;font style=&quot;font-size: 12px;&quot;&gt;block size&lt;/font&gt;&lt;/b&gt;" style="text;html=1;align=center;verticalAlign=middle;whiteSpace=wrap;rounded=0;" vertex="1" parent="1">
          <mxGeometry x="30" y="360" width="80" height="30" as="geometry" />
        </mxCell>
        <mxCell id="WLD2-9vDDByNQEJ-Vk1g-16" value="" style="shape=sumEllipse;perimeter=ellipsePerimeter;whiteSpace=wrap;html=1;backgroundOutline=1;" vertex="1" parent="1">
          <mxGeometry x="250" y="210" width="20" height="20" as="geometry" />
        </mxCell>
        <mxCell id="WLD2-9vDDByNQEJ-Vk1g-17" value="" style="rounded=0;whiteSpace=wrap;html=1;fillColor=#ffe6cc;strokeColor=#d79b00;" vertex="1" parent="1">
          <mxGeometry x="490" y="210" width="60" height="20" as="geometry" />
        </mxCell>
        <mxCell id="WLD2-9vDDByNQEJ-Vk1g-18" style="edgeStyle=orthogonalEdgeStyle;rounded=0;orthogonalLoop=1;jettySize=auto;html=1;exitX=0.5;exitY=0;exitDx=0;exitDy=0;entryX=0;entryY=0.5;entryDx=0;entryDy=0;" edge="1" parent="1" source="WLD2-9vDDByNQEJ-Vk1g-2" target="WLD2-9vDDByNQEJ-Vk1g-7">
          <mxGeometry relative="1" as="geometry" />
        </mxCell>
        <mxCell id="WLD2-9vDDByNQEJ-Vk1g-19" value="" style="rounded=0;whiteSpace=wrap;html=1;fillColor=#ffe6cc;strokeColor=#d79b00;" vertex="1" parent="1">
          <mxGeometry x="491" y="280" width="60" height="20" as="geometry" />
        </mxCell>
        <mxCell id="WLD2-9vDDByNQEJ-Vk1g-20" value="" style="rounded=0;whiteSpace=wrap;html=1;fillColor=#ffe6cc;strokeColor=#d79b00;" vertex="1" parent="1">
          <mxGeometry x="490" y="390" width="60" height="20" as="geometry" />
        </mxCell>
        <mxCell id="WLD2-9vDDByNQEJ-Vk1g-22" value="" style="shape=sumEllipse;perimeter=ellipsePerimeter;whiteSpace=wrap;html=1;backgroundOutline=1;" vertex="1" parent="1">
          <mxGeometry x="320" y="390" width="20" height="20" as="geometry" />
        </mxCell>
        <mxCell id="WLD2-9vDDByNQEJ-Vk1g-23" value="" style="shape=sumEllipse;perimeter=ellipsePerimeter;whiteSpace=wrap;html=1;backgroundOutline=1;" vertex="1" parent="1">
          <mxGeometry x="250" y="280" width="20" height="20" as="geometry" />
        </mxCell>
        <mxCell id="WLD2-9vDDByNQEJ-Vk1g-24" value="&lt;b&gt;FP32 Accumulator&lt;/b&gt;" style="rounded=0;whiteSpace=wrap;html=1;fillColor=#dae8fc;strokeColor=#6c8ebf;" vertex="1" parent="1">
          <mxGeometry x="650" y="230" width="100" height="120" as="geometry" />
        </mxCell>
      </root>
    </mxGraphModel>
  </diagram>
</mxfile>
